<svg width="1113" height="356" viewBox="0 0 1113 356" fill="none" xmlns="http://www.w3.org/2000/svg">
<path d="M128.691 144.159C128.691 157.905 123.951 169.36 114.471 178.524C105.149 187.53 90.85 192.033 71.574 192.033H39.816V261H18.249V95.811H71.574C90.218 95.811 104.359 100.314 113.997 109.32C123.793 118.326 128.691 129.939 128.691 144.159ZM71.574 174.258C83.582 174.258 92.43 171.651 98.118 166.437C103.806 161.223 106.65 153.797 106.65 144.159C106.65 123.777 94.958 113.586 71.574 113.586H39.816V174.258H71.574ZM147.438 195.588C147.438 182.316 150.124 170.703 155.496 160.749C160.868 150.637 168.215 142.816 177.537 137.286C187.017 131.756 197.524 128.991 209.058 128.991C220.434 128.991 230.309 131.44 238.683 136.338C247.057 141.236 253.298 147.398 257.406 154.824V131.124H279.21V261H257.406V236.826C253.14 244.41 246.741 250.73 238.209 255.786C229.835 260.684 220.039 263.133 208.821 263.133C197.287 263.133 186.859 260.289 177.537 254.601C168.215 248.913 160.868 240.934 155.496 230.664C150.124 220.394 147.438 208.702 147.438 195.588ZM257.406 195.825C257.406 186.029 255.431 177.497 251.481 170.229C247.531 162.961 242.159 157.431 235.365 153.639C228.729 149.689 221.382 147.714 213.324 147.714C205.266 147.714 197.919 149.61 191.283 153.402C184.647 157.194 179.354 162.724 175.404 169.992C171.454 177.26 169.479 185.792 169.479 195.588C169.479 205.542 171.454 214.232 175.404 221.658C179.354 228.926 184.647 234.535 191.283 238.485C197.919 242.277 205.266 244.173 213.324 244.173C221.382 244.173 228.729 242.277 235.365 238.485C242.159 234.535 247.531 228.926 251.481 221.658C255.431 214.232 257.406 205.621 257.406 195.825ZM388.178 261L337.223 203.646V261H315.656V85.62H337.223V188.715L387.23 131.124H417.329L356.183 195.825L417.566 261H388.178Z" fill="#198754"/>
<path d="M445.592 147.784C439.789 147.784 435.523 148.893 432.792 151.112C430.061 153.331 428.227 157.043 427.288 162.248L426.392 167.112H442.776L441.368 174.664H425.112L414.104 237H405.144L416.152 174.664H406.424L407.832 167.112H417.432L418.328 162.248C419.693 154.653 422.637 149.064 427.16 145.48C431.683 141.896 438.296 140.104 447 140.104L445.592 147.784ZM463.281 181.064C466.097 176.2 469.766 172.445 474.289 169.8C478.812 167.155 484.06 165.832 490.033 165.832L488.369 175.176H485.809C479.665 175.176 474.374 176.755 469.937 179.912C465.5 183.069 462.428 188.275 460.721 195.528L453.425 237H444.465L456.753 167.112H465.713L463.281 181.064ZM533.592 166.088C539.48 166.088 544.515 167.24 548.696 169.544C552.877 171.763 556.035 174.835 558.168 178.76C560.387 182.685 561.496 187.165 561.496 192.2C561.496 194.504 561.325 196.552 560.984 198.344C560.472 200.904 559.96 203.208 559.448 205.256H501.464C501.208 206.877 501.08 208.413 501.08 209.864C501.08 216.435 503.043 221.512 506.968 225.096C510.979 228.68 516.056 230.472 522.2 230.472C528.088 230.472 533.251 229.064 537.688 226.248C542.125 223.432 545.368 219.635 547.416 214.856H557.016C554.115 221.683 549.464 227.272 543.064 231.624C536.749 235.891 529.368 238.024 520.92 238.024C512.216 238.024 505.219 235.549 499.928 230.6C494.723 225.565 492.12 218.739 492.12 210.12C492.12 207.56 492.376 204.872 492.888 202.056C494.168 194.803 496.728 188.445 500.568 182.984C504.493 177.523 509.315 173.341 515.032 170.44C520.749 167.539 526.936 166.088 533.592 166.088ZM551.768 198.6C552.195 196.211 552.408 194.205 552.408 192.584C552.408 186.525 550.488 181.875 546.648 178.632C542.808 175.389 537.901 173.768 531.928 173.768C527.576 173.768 523.395 174.707 519.384 176.584C515.373 178.461 511.875 181.277 508.888 185.032C505.901 188.787 503.853 193.309 502.744 198.6H551.768ZM613.217 166.088C619.105 166.088 624.14 167.24 628.321 169.544C632.502 171.763 635.66 174.835 637.793 178.76C640.012 182.685 641.121 187.165 641.121 192.2C641.121 194.504 640.95 196.552 640.609 198.344C640.097 200.904 639.585 203.208 639.073 205.256H581.089C580.833 206.877 580.705 208.413 580.705 209.864C580.705 216.435 582.668 221.512 586.593 225.096C590.604 228.68 595.681 230.472 601.825 230.472C607.713 230.472 612.876 229.064 617.313 226.248C621.75 223.432 624.993 219.635 627.041 214.856H636.641C633.74 221.683 629.089 227.272 622.689 231.624C616.374 235.891 608.993 238.024 600.545 238.024C591.841 238.024 584.844 235.549 579.553 230.6C574.348 225.565 571.745 218.739 571.745 210.12C571.745 207.56 572.001 204.872 572.513 202.056C573.793 194.803 576.353 188.445 580.193 182.984C584.118 177.523 588.94 173.341 594.657 170.44C600.374 167.539 606.561 166.088 613.217 166.088ZM631.393 198.6C631.82 196.211 632.033 194.205 632.033 192.584C632.033 186.525 630.113 181.875 626.273 178.632C622.433 175.389 617.526 173.768 611.553 173.768C607.201 173.768 603.02 174.707 599.009 176.584C594.998 178.461 591.5 181.277 588.513 185.032C585.526 188.787 583.478 193.309 582.369 198.6H631.393ZM675.818 142.28L659.05 237H650.09L666.858 142.28H675.818ZM681.388 201.928C682.668 194.76 685.228 188.488 689.068 183.112C692.908 177.651 697.601 173.469 703.148 170.568C708.78 167.581 714.796 166.088 721.196 166.088C727.852 166.088 733.313 167.624 737.58 170.696C741.847 173.768 744.62 177.693 745.9 182.472L748.588 167.112H757.548L745.26 237H736.3L738.988 221.512C736.087 226.291 731.905 230.259 726.444 233.416C721.068 236.488 715.052 238.024 708.396 238.024C702.849 238.024 697.985 236.872 693.804 234.568C689.623 232.264 686.38 229.021 684.076 224.84C681.772 220.573 680.62 215.581 680.62 209.864C680.62 207.389 680.876 204.744 681.388 201.928ZM742.444 202.056C742.871 199.667 743.084 197.533 743.084 195.656C743.084 189 741.079 183.709 737.068 179.784C733.057 175.859 727.852 173.896 721.452 173.896C716.503 173.896 711.852 175.005 707.5 177.224C703.233 179.443 699.607 182.685 696.62 186.952C693.633 191.133 691.628 196.125 690.604 201.928C690.177 204.488 689.964 206.664 689.964 208.456C689.964 215.197 691.927 220.531 695.852 224.456C699.863 228.296 705.068 230.216 711.468 230.216C716.247 230.216 720.812 229.064 725.164 226.76C729.601 224.456 733.313 221.171 736.3 216.904C739.372 212.637 741.42 207.688 742.444 202.056ZM811.155 165.832C818.323 165.832 824.04 167.795 828.307 171.72C832.659 175.56 834.835 181.192 834.835 188.616C834.835 191.347 834.622 193.821 834.195 196.04L826.899 237H818.067L825.107 197.064C825.448 195.101 825.619 193.011 825.619 190.792C825.619 185.16 824.083 180.893 821.011 177.992C817.939 175.091 813.63 173.64 808.083 173.64C801.342 173.64 795.582 175.773 790.803 180.04C786.024 184.307 782.91 190.579 781.459 198.856V198.472L774.675 237H765.715L778.003 167.112H786.963L784.787 179.144C787.774 174.877 791.571 171.592 796.179 169.288C800.787 166.984 805.779 165.832 811.155 165.832ZM848.763 202.056C850.043 194.803 852.603 188.488 856.443 183.112C860.368 177.651 865.147 173.469 870.779 170.568C876.411 167.581 882.512 166.088 889.083 166.088C897.702 166.088 904.4 168.221 909.179 172.488C914.043 176.755 916.646 182.557 916.987 189.896H907.387C907.131 184.861 905.254 180.936 901.755 178.12C898.342 175.219 893.691 173.768 887.803 173.768C880.55 173.768 874.15 176.243 868.603 181.192C863.142 186.056 859.6 193.011 857.979 202.056C857.552 204.189 857.339 206.621 857.339 209.352C857.339 216.179 859.174 221.427 862.843 225.096C866.598 228.68 871.547 230.472 877.691 230.472C883.664 230.472 888.87 229.064 893.307 226.248C897.744 223.347 901.03 219.336 903.163 214.216H912.763C909.862 221.384 905.211 227.144 898.811 231.496C892.411 235.848 884.944 238.024 876.411 238.024C867.792 238.024 860.88 235.549 855.675 230.6C850.555 225.651 847.995 218.867 847.995 210.248C847.995 207.603 848.251 204.872 848.763 202.056ZM967.967 166.088C973.855 166.088 978.89 167.24 983.071 169.544C987.252 171.763 990.41 174.835 992.543 178.76C994.762 182.685 995.871 187.165 995.871 192.2C995.871 194.504 995.7 196.552 995.359 198.344C994.847 200.904 994.335 203.208 993.823 205.256H935.839C935.583 206.877 935.455 208.413 935.455 209.864C935.455 216.435 937.418 221.512 941.343 225.096C945.354 228.68 950.431 230.472 956.575 230.472C962.463 230.472 967.626 229.064 972.063 226.248C976.5 223.432 979.743 219.635 981.791 214.856H991.391C988.49 221.683 983.839 227.272 977.439 231.624C971.124 235.891 963.743 238.024 955.295 238.024C946.591 238.024 939.594 235.549 934.303 230.6C929.098 225.565 926.495 218.739 926.495 210.12C926.495 207.56 926.751 204.872 927.263 202.056C928.543 194.803 931.103 188.445 934.943 182.984C938.868 177.523 943.69 173.341 949.407 170.44C955.124 167.539 961.311 166.088 967.967 166.088ZM986.143 198.6C986.57 196.211 986.783 194.205 986.783 192.584C986.783 186.525 984.863 181.875 981.023 178.632C977.183 175.389 972.276 173.768 966.303 173.768C961.951 173.768 957.77 174.707 953.759 176.584C949.748 178.461 946.25 181.277 943.263 185.032C940.276 188.787 938.228 193.309 937.119 198.6H986.143ZM1023.66 181.064C1026.47 176.2 1030.14 172.445 1034.66 169.8C1039.19 167.155 1044.43 165.832 1050.41 165.832L1048.74 175.176H1046.18C1040.04 175.176 1034.75 176.755 1030.31 179.912C1025.87 183.069 1022.8 188.275 1021.1 195.528L1013.8 237H1004.84L1017.13 167.112H1026.09L1023.66 181.064ZM1074.51 238.024C1067.43 238.024 1061.67 236.403 1057.23 233.16C1052.79 229.832 1050.58 225.309 1050.58 219.592C1050.58 218.568 1050.62 217.8 1050.7 217.288H1059.41C1059.07 221.384 1060.26 224.669 1062.99 227.144C1065.72 229.619 1069.73 230.856 1075.02 230.856C1080.4 230.856 1084.71 229.747 1087.95 227.528C1091.19 225.224 1092.82 222.195 1092.82 218.44C1092.82 216.221 1092.13 214.344 1090.77 212.808C1089.4 211.272 1087.7 210.035 1085.65 209.096C1083.68 208.072 1080.91 206.92 1077.33 205.64C1072.89 204.019 1069.31 202.525 1066.58 201.16C1063.93 199.709 1061.63 197.747 1059.66 195.272C1057.79 192.712 1056.85 189.512 1056.85 185.672C1056.85 181.832 1057.96 178.419 1060.18 175.432C1062.39 172.445 1065.42 170.141 1069.26 168.52C1073.19 166.899 1077.63 166.088 1082.58 166.088C1089.49 166.088 1095.12 167.795 1099.47 171.208C1103.91 174.621 1106.13 179.144 1106.13 184.776C1106.13 185.971 1106.08 186.867 1106 187.464H1097.55C1097.64 187.123 1097.68 186.568 1097.68 185.8C1097.68 182.045 1096.19 179.016 1093.2 176.712C1090.3 174.408 1086.54 173.256 1081.94 173.256C1077.33 173.256 1073.49 174.365 1070.42 176.584C1067.43 178.717 1065.94 181.619 1065.94 185.288C1065.94 187.763 1066.66 189.853 1068.11 191.56C1069.56 193.181 1071.35 194.504 1073.49 195.528C1075.62 196.552 1078.48 197.747 1082.06 199.112C1086.33 200.733 1089.74 202.227 1092.3 203.592C1094.95 204.957 1097.17 206.835 1098.96 209.224C1100.75 211.613 1101.65 214.6 1101.65 218.184C1101.65 224.243 1099.13 229.064 1094.1 232.648C1089.06 236.232 1082.53 238.024 1074.51 238.024Z" fill="#198754"/>
</svg>
